HIERARCHY
ROOT Hips
{
  OFFSET 0 0 0
  CHANNELS 6 Xposition Yposition Zposition Zrotation Xrotation Yrotation
  JOINT LeftUpLeg
  {
    OFFSET 4.06525 -3.90732 0.41711
    CHANNELS 3 Zrotation Xrotation Yrotation
    JOINT LeftLeg
    {
      OFFSET 0.00023 -18.4821 0.00367
      CHANNELS 3 Zrotation Xrotation Yrotation
      JOINT LeftFoot
      {
        OFFSET -0.00172 -15.2898 -0.02629
        CHANNELS 3 Zrotation Xrotation Yrotation
        JOINT LeftToeBase
        {
          OFFSET 0.36743 -3.19131 5.54287
          CHANNELS 3 Zrotation Xrotation Yrotation
          JOINT LeftToeBase2
          {
            OFFSET 0.08751 0.04849 1.36758
            CHANNELS 3 Zrotation Xrotation Yrotation
            JOINT LeftToeBase3
            {
              OFFSET 0.07484 0.06785 1.16707
            }
          }
        }
      }
    }
  }
  JOINT RightUpLeg
  {
    OFFSET -4.06526 -3.90731 0.41712
    CHANNELS 3 Zrotation Xrotation Yrotation
    JOINT RightLeg
    {
      OFFSET -0.00029 -18.4821 0.0044
      CHANNELS 3 Zrotation Xrotation Yrotation
      JOINT RightFoot
      {
        OFFSET 0.0016 -15.2898 -0.02569
        CHANNELS 3 Zrotation Xrotation Yrotation
        JOINT RightToeBase
        {
          OFFSET -0.3542 -3.19109 5.54386
          CHANNELS 3 Zrotation Xrotation Yrotation
          JOINT RightToeBase2
          {
            OFFSET -0.08424 0.04854 1.36778
            CHANNELS 3 Zrotation Xrotation Yrotation
            JOINT RightToeBase3
            {
              OFFSET -0.07205 0.0679 1.16725
            }
          }
        }
      }
    }
  }
  JOINT Spine
  {
    OFFSET 1e-005 4.46517 -0.10224
    CHANNELS 3 Zrotation Xrotation Yrotation
    JOINT Spine1
    {
      OFFSET 1e-005 4.46212 -0.1824
      CHANNELS 3 Zrotation Xrotation Yrotation
      JOINT Spine2
      {
        OFFSET 0 4.37937 -0.881
        CHANNELS 3 Zrotation Xrotation Yrotation
        JOINT Spine3
        {
          OFFSET 1e-005 4.68286 0.21414
          CHANNELS 3 Zrotation Xrotation Yrotation
          JOINT Neck
          {
            OFFSET 0 1.76964 0.82454
            CHANNELS 3 Zrotation Xrotation Yrotation
            JOINT Head
            {
              OFFSET 0 1.6961 0.93145
              CHANNELS 3 Zrotation Xrotation Yrotation
              JOINT Head_End
              {
                OFFSET 1e-005 7.8375 1.52603
              }
            }
          }
          JOINT LeftShoulder
          {
            OFFSET 1.19381 -0.75881 -0.02768
            CHANNELS 3 Zrotation Xrotation Yrotation
            JOINT LeftArm
            {
              OFFSET 5.18779 -2e-005 1e-005
              CHANNELS 3 Zrotation Xrotation Yrotation
              JOINT LeftForeArm
              {
                OFFSET 12.7364 -4e-005 2e-005
                CHANNELS 3 Zrotation Xrotation Yrotation
                JOINT LeftHand
                {
                  OFFSET 9.21452 -2e-005 1e-005
                  CHANNELS 3 Zrotation Xrotation Yrotation
                }
              }
            }
          }
          JOINT RightShoulder
          {
            OFFSET -1.19381 -0.75881 -0.02767
            CHANNELS 3 Zrotation Xrotation Yrotation
            JOINT RightArm
            {
              OFFSET -5.18779 1e-005 -1e-005
              CHANNELS 3 Zrotation Xrotation Yrotation
              JOINT RightForeArm
              {
                OFFSET -12.7364 3e-005 -2e-005
                CHANNELS 3 Zrotation Xrotation Yrotation
                JOINT RightHand
                {
                  OFFSET -9.21452 2e-005 -1e-005
                  CHANNELS 3 Zrotation Xrotation Yrotation
                }
              }
            }
          }
        }
      }
    }
  }
}
MOTION
Frames: 7
Frame Time: 	0.0333333
-8.62688 40.2624 -1.40224 1.37137 7.22262 15.0062 2.43451 -7.64858 -11.2394  -0.0175005 2.12587 -0.122509  -5.26177 -1.66317 -15.6542  3.68331e-011 -4.0591e-011 6.05275e-011  -0 0 -0   -11.7697 -10.2082 10.3386  0.235351 18.6415 -0.271962  10.0579 -13.4351 -6.83403  -7.61642e-012 -1.9881e-011 1.82023e-011  -0 0 -0   -0.435151 1.63209 0.0660398  -2.12925 3.27177 0.109792  -2.12986 3.27128 0.115666  -2.13081 3.27056 0.121492  -19.5382 5.49794 6.45703  -15.1419 0.0881951 6.29037   -17.4213 14.4242 -9.0965  -50.4388 15.3735 -18.3854  -0.25261 -0.766247 -28.8588  -14.4599 35.6807 -10.6132  -16.702 13.4341 4.73583  71.6296 33.2645 17.6113  0.0160633 0.426027 36.5272  17.0023 43.8183 8.20252 
-9.1363 40.2321 -1.70424 0.49162 8.03178 16.7066 3.47179 -10.1337 -11.7052  -0.0275506 2.97031 -0.129461  -6.19124 -1.21588 -16.4831  3.68331e-011 -4.0591e-011 6.05275e-011  -0 0 -0   -10.5052 -9.34124 10.8786  0.152917 14.3324 -0.257226  8.60901 -12.976 -10.2167  -7.61642e-012 -1.9881e-011 1.82023e-011  -0 0 -0   -0.623562 1.85416 0.0501478  -2.01652 3.70462 0.096346  -2.01696 3.70434 0.10052  -2.01767 3.70391 0.104662  -18.8358 9.31609 7.24495  -15.4607 2.21751 6.65225   -15.6503 15.1501 -10.0898  -49.9939 13.0006 -21.1833  -0.237051 -0.741502 -27.8243  -13.9693 34.6085 -10.7582  -15.9303 14.1999 5.35372  70.0949 33.306 19.4897  0.0204888 0.409973 35.1243  17.4985 44.2974 9.50454 
-9.58732 40.2716 -2.08868 -1.23465 8.22552 17.4632 5.52187 -12.4275 -11.7854  -0.0385109 4.28997 -0.135935  -6.85401 -1.05771 -16.6336  3.68331e-011 -4.0591e-011 6.05275e-011  -0 0 -0   -8.60259 -9.34044 8.21179  0.107394 11.163 -0.155755  8.31048 -10.655 -9.26538  -7.61642e-012 -1.9881e-011 1.82023e-011  -0 0 -0   -0.64342 2.12638 0.0713234  -1.67263 4.23422 0.158766  -1.67288 4.23406 0.161233  -1.67332 4.23384 0.163681  -17.3458 13.3268 8.52014  -15.5085 4.88755 7.16561   -13.6148 15.8657 -10.5853  -50.5158 10.3415 -23.1865  -0.240546 -0.747144 -28.0591  -11.9123 30.3107 -10.199  -14.9387 14.7998 6.74172  67.9854 32.6973 22.0077  0.0251951 0.390906 33.4694  18.4899 44.7334 9.96304 
-10.018 40.2935 -2.50162 -2.93016 8.228 17.7428 7.60061 -14.5828 -11.8066  -0.0499431 5.86834 -0.150581  -7.44987 -1.11789 -16.3683  3.68331e-011 -4.0591e-011 6.05275e-011  -0 0 -0   -6.72656 -9.7283 4.0876  0.0802499 8.86663 -0.0550754  8.20013 -8.08337 -6.02711  -7.61642e-012 -1.9881e-011 1.82023e-011  -0 0 -0   -0.591056 2.40882 0.104637  -1.32004 4.79111 0.240395  -1.32011 4.79105 0.24137  -1.32026 4.79098 0.24234  -15.2325 17.8048 9.71015  -15.3254 7.96308 7.73407   -11.1958 16.7661 -10.6635  -51.5947 8.36602 -24.6769  -0.259489 -0.776862 -29.3063  -6.82672 24.5897 -11.1344  -14.0422 15.5582 8.38022  65.8741 31.3691 24.7015  0.0283456 0.376597 32.2352  19.3539 45.4047 9.37836 
-10.4349 40.2892 -2.89706 -4.36472 8.16539 18.0269 9.4231 -16.4295 -12.0696  -0.060632 7.17118 -0.169286  -8.01505 -1.11341 -15.8697  3.68331e-011 -4.0591e-011 6.05275e-011  -0 0 -0   -5.01506 -10.1565 0.320643  0.0640495 7.1381 0.0136597  7.95776 -5.91561 -2.75903  -7.61642e-012 -1.9881e-011 1.82023e-011  -0 0 -0   -0.519081 2.68486 0.127292  -0.981472 5.33744 0.301322  -0.981338 5.33749 0.300781  -0.981156 5.33755 0.300251  -12.8636 23.2568 10.3343  -14.9146 10.742 8.04262   -8.35903 18.1505 -10.6253  -52.2575 7.81447 -25.8923  -0.300773 -0.837117 -31.8923  -3.12097 21.4797 -12.832  -13.5833 16.7694 9.96535  64.3736 29.3414 27.1524  0.0301844 0.370472 31.7082  18.7468 45.9698 9.38742 
-10.8378 40.2633 -3.28014 -5.62335 8.16796 18.4741 10.9573 -18.2797 -12.5019  -0.0723803 8.40284 -0.18395  -8.47486 -1.07935 -15.2953  3.68331e-011 -4.0591e-011 6.05275e-011  -0 0 -0   -3.43157 -10.7798 -1.66757  0.0538297 5.94373 0.051966  7.66408 -4.37424 -1.12219  -7.61642e-012 -1.9881e-011 1.82023e-011  -0 0 -0   -0.418401 2.95631 0.137444  -0.625342 5.87411 0.336636  -0.624988 5.87425 0.334576  -0.624427 5.87442 0.332545  -10.4595 28.9358 10.4822  -13.9368 13.6965 8.10709   -5.8583 20.1791 -10.6245  -51.3312 8.6111 -26.8074  -0.37349 -0.930829 -36.0918  -2.02202 25.0478 -15.0458  -13.1989 18.4819 11.2669  63.3363 26.7026 29.3609  0.0293896 0.371489 31.7952  16.9686 47.0835 10.3805 
-11.2171 40.2266 -3.66462 -6.7195 8.31304 18.973 12.173 -20.1943 -12.607  -0.0848648 9.61863 -0.20831  -9.11366 -1.03534 -14.5755  3.68331e-011 -4.0591e-011 6.05275e-011  -0 0 -0   -2.03758 -11.5791 -1.53704  0.0478078 4.91437 0.0812537  7.41456 -3.21905 -1.55333  -7.61642e-012 -1.9881e-011 1.82023e-011  -0 0 -0   -0.307501 3.23182 0.142451  -0.24742 6.41883 0.365653  -0.246784 6.41906 0.36178  -0.245725 6.41931 0.357956  -8.52425 34.4155 10.5921  -11.7664 16.8683 7.92705   -3.59401 22.7043 -10.5764  -49.0669 10.9127 -28.1686  -0.458073 -1.0243 -40.5551  -0.777072 31.6833 -18.6548  -12.9787 20.5174 12.2373  62.0643 24.8504 32.1379  0.0274512 0.380808 32.5971  13.4324 49.0431 11.9814 
